<?xml version="1.0" standalone="no"?><!DOCTYPE svg PUBLIC "-//W3C//DTD SVG 1.1//EN" "http://www.w3.org/Graphics/SVG/1.1/DTD/svg11.dtd"><svg t="1621408243787" class="icon" viewBox="0 0 1024 1024" version="1.1" xmlns="http://www.w3.org/2000/svg" p-id="2488" xmlns:xlink="http://www.w3.org/1999/xlink" width="200" height="200"><defs><style type="text/css"></style></defs><path d="M2.240000000000009 511.87600000000015c5.684341886080802e-14 169.952 137.77000000000015 307.727 307.7240000000001 307.72699999999986l404.235-1.7053025658242404e-13c169.955-5.684341886080802e-14 307.724-137.77500000000015 307.7239999999999-307.7270000000001s-137.77000000000007-307.7239999999999-307.72400000000005-307.72399999999993l-404.235 1.7053025658242404e-13c-169.955 5.684341886080802e-14-307.724 137.77200000000013-307.72399999999993 307.72400000000005zM30.34500000000014 511.2290000000001c-5.684341886080802e-14-154.236 125.02999999999994-279.26700000000005 279.26899999999983-279.26800000000003 154.23-4.263256414560601e-14 279.264 125.02999999999992 279.2640000000001 279.2669999999999 4.263256414560601e-14 154.24-125.03499999999991 279.2690000000001-279.26299999999986 279.2690000000001-154.238 4.263256414560601e-14-279.269-125.0309999999999-279.2690000000001-279.26899999999995z" fill="#fe512e" p-id="2489"></path></svg>