<?xml version="1.0" standalone="no"?><!DOCTYPE svg PUBLIC "-//W3C//DTD SVG 1.1//EN" "http://www.w3.org/Graphics/SVG/1.1/DTD/svg11.dtd"><svg t="1621417612118" class="icon" viewBox="0 0 1954 1024" version="1.1" xmlns="http://www.w3.org/2000/svg" p-id="8295" xmlns:xlink="http://www.w3.org/1999/xlink" width="381.640625" height="200"><defs><style type="text/css"></style></defs><path d="M512 0h930.909091c282.763636 0 512 229.236364 512 512s-229.236364 512-512 512H512C229.236364 1024 0 794.763636 0 512S229.236364 0 512 0z" fill="#d81e06" p-id="8296" data-spm-anchor-id="a313x.7781069.0.i42" class=""></path><path d="M512 512m-418.909091 0a418.909091 418.909091 0 1 0 837.818182 0 418.909091 418.909091 0 1 0-837.818182 0Z" fill="#000000" p-id="8297"></path><path d="M512 512m-418.909091 0a418.909091 418.909091 0 1 0 837.818182 0 418.909091 418.909091 0 1 0-837.818182 0Z" fill="#ffffff" p-id="8298" data-spm-anchor-id="a313x.7781069.0.i41" class="selected"></path></svg>